<?xml version="1.0" encoding="utf-8"?>
<svg viewBox="0 0 300 350" xmlns="http://www.w3.org/2000/svg">
  <path d="M 389.635 138.491 C 380.519 148.582 369.079 151.706 358.247 158.117 C 349.121 163.518 340.007 169.919 330.553 175.29 C 321.282 180.558 312.008 185.608 302.86 191.644 C 286.768 202.27 271.604 210.183 251.78 216.997 C 233.865 223.153 208.607 228.694 185.93 230.083 C 176.601 230.653 168.491 227.622 160.082 226.809 C 148.977 225.736 138.186 228.745 126.85 226.809 C 117.618 225.232 107.648 220.882 97.926 217.814 C 88.833 214.946 79.656 210.886 71.462 206.367 C 63.341 201.884 55.822 195.148 48.076 190.011 C 32.752 179.851 18.695 171.56 15.458 146.669 C 23.482 144.957 31.074 143.941 36.382 149.124 C 39.038 151.717 41.389 157.965 43.768 162.21 C 50.787 174.716 61.33 184.644 69 195.737 C 73.069 196.595 73.839 201.842 78.846 201.461 C 77.154 197.424 73.303 196.703 70.846 194.099 C 68.822 191.958 67.358 188.192 65.308 185.921 C 63.203 183.589 60.472 182.421 58.538 180.195 C 50.029 170.43 43.5 158.084 36.998 145.852 C 43.357 146.098 49.859 147.881 56.076 148.305 C 58.915 148.499 62.076 147.337 64.692 148.305 C 67.434 149.322 69.044 153.34 70.846 155.667 C 73.113 158.586 75.105 160.591 77 163.023 C 79.268 174.628 86.78 182.319 93.002 190.831 C 96.299 195.342 102.092 204.214 107.156 206.367 C 113.234 208.944 120.642 211.566 126.85 214.541 C 132.421 217.212 136.075 219.515 140.39 224.357 C 131.815 208.729 108.881 208.458 97.926 194.918 C 95.495 191.911 93.566 187.487 91.155 184.288 C 88.833 181.198 85.733 178.532 83.771 175.291 C 81.372 171.328 80.176 166.094 77.617 161.391 C 75.404 157.322 71.38 154.104 69.617 149.125 C 82.089 148.48 90.023 150.209 102.235 150.76 C 113.804 166.09 123.706 185.548 137.313 199.824 C 141.675 204.398 146.969 209.782 152.083 212.09 C 155.875 213.801 160.353 213.571 164.391 215.359 C 166.017 216.082 167.647 217.897 169.315 218.633 C 175.114 221.19 179.765 223.107 184.701 227.628 C 179.327 216.405 164.547 215.309 153.929 209.636 C 140.967 202.711 133.484 190.895 123.775 180.196 C 118.457 169.272 111.367 160.707 105.927 149.943 C 120.408 148.421 133.612 148.577 145.929 149.124 C 152.43 156.679 159.827 163.441 165.007 172.84 C 176.471 193.644 192.89 208.262 211.778 221.086 C 211.708 218.068 208.232 214.547 206.239 212.911 C 200.242 207.968 194.202 205.425 189.007 200.644 C 174.461 187.242 163.571 165.922 150.237 149.127 C 160.585 150.12 172.687 148.547 182.854 149.946 C 195.892 151.74 202.179 168.668 212.395 175.294 C 220.056 192.646 229.619 207.47 244.395 215.363 C 241.438 210.3 236.911 207.321 232.087 204.733 C 230.554 200.081 226.876 196.315 224.087 192.467 C 221.388 188.742 217.941 185.446 217.316 181.018 C 225.329 187 235.936 192.177 246.242 197.374 C 252.59 200.574 257.979 203.19 262.242 209.64 C 262.896 205.8 257.607 200.196 254.858 198.191 C 247.423 192.78 236.614 191.212 228.394 185.925 C 226.505 184.71 224.369 182.565 222.24 181.019 C 211.941 173.548 201.354 160.867 193.93 150.764 C 202.337 150.558 210.392 149.652 219.162 149.128 C 224.788 148.792 231.655 147.432 235.164 148.31 C 241.245 149.837 244.111 157.346 249.934 158.123 C 262.93 174.38 279.831 185.452 301.014 190.836 C 297.173 184.317 290.203 183.921 285.012 181.839 C 268.162 175.075 255.584 160.054 241.318 149.13 C 242.872 146.931 244.356 146.984 246.242 146.676 C 254.493 145.326 266.749 146.682 275.166 145.858 C 277.179 145.662 279.083 144.779 280.704 145.041 C 284.665 145.678 287.73 149.986 291.782 153.217 C 302.098 161.457 316.313 166.234 326.862 173.664 C 323.584 165.567 314.517 163.553 307.168 159.76 C 300.03 156.078 292.681 152.427 288.09 145.858 C 295.744 141.363 303.266 143.62 311.477 143.405 C 314.5 143.324 317.546 141.718 320.092 142.587 C 323.092 143.61 324.367 147.951 327.477 150.765 C 333.982 156.652 342.827 158.463 349.632 162.214 C 345.304 155.543 336.401 154.503 330.554 149.948 C 328.163 148.085 324.679 145.311 325.016 141.77 C 346.653 141.799 363.314 143.72 385.327 140.134 C 382.896 136.452 379.973 139.229 377.327 139.317 C 364.366 139.741 351.904 139.714 337.325 137.681 C 342.486 132.272 351.754 132.322 357.018 127.051 C 366.902 132.17 379.77 133.335 389.635 138.491 Z" style="fill: rgb(66, 88, 24);" transform="matrix(0.634636, -0.772811, 0.772811, 0.634636, -64.022766, 221.785086)"/>
  <path d="M 275.254 76.586 C 258.509 86.235 242.998 91.427 220.483 88.319 C 227.992 79.268 238.593 74.43 249.409 69.881 C 233.638 67.44 224.84 86.115 210.021 89.157 C 202.265 90.75 194.163 89.587 184.173 90.833 C 185.763 86.586 188.761 84.212 191.559 81.614 C 194.472 78.908 197.415 77.876 200.788 75.747 C 205.87 72.544 210.348 66.101 215.56 63.176 C 218.058 61.775 221.582 62.92 223.56 59.824 C 215.523 56.833 209.848 66.216 203.866 70.72 C 200.115 73.541 195.882 74.637 192.173 77.424 C 186.432 81.739 182.674 89.805 176.173 91.671 C 166.055 94.577 155.75 90.449 142.941 93.347 C 141.967 90.37 144.914 89.115 146.017 87.48 C 153.452 76.48 160.754 67.921 172.481 60.662 C 175.853 58.575 178.376 56.418 182.327 53.957 C 185.021 52.281 188.907 51.082 192.789 48.929 C 194.243 48.123 197.307 46.809 197.714 43.9 C 204.663 48.12 212.472 50.738 220.484 54.794 C 222.735 55.934 224.968 58.145 227.254 58.984 C 231.442 60.52 236.05 60.316 240.178 61.498 C 252.287 64.969 263.953 70.223 275.254 76.585 L 275.254 76.586 Z" style="fill: rgb(66, 88, 24);" transform="matrix(0.676362, -0.736569, 0.736569, 0.676362, 17.094447, 176.152354)"/>
  <path d="M 230.09 156.545 C 230.204 157.282 229.852 157.363 229.476 157.411 C 216.265 164.447 200.855 172.204 190.088 183.421 C 182.866 190.945 178.327 202.702 169.164 208.563 C 153 207.787 140.915 209.447 125.47 207.697 C 130.814 185.564 148.512 178.722 163.01 166.949 C 165.066 165.28 166.507 162.727 168.548 160.88 C 171.336 158.361 175.147 155.548 178.397 153.077 C 184.165 148.69 190.104 146.76 195.628 142.673 C 184.964 142.097 176.147 151.568 167.934 159.145 C 154.602 171.443 139.393 178.911 127.933 193.824 C 126.113 199.066 123.988 203.874 121.163 207.696 C 108.757 206.268 90.275 207.002 75.006 206.828 C 78.931 197.288 85.857 191.901 92.238 186.021 C 107.911 171.584 122.172 155.519 141.472 144.407 C 148.387 140.426 154.948 136.347 163.627 133.137 C 153.506 132.232 144.349 139.64 135.933 144.407 C 118.964 154.018 106.127 170.511 91.621 184.287 C 84.403 191.145 76.559 197.104 71.313 206.828 C 58.939 207.193 46.382 206.234 35.619 206.828 C 49.604 194.742 59.292 173.478 71.929 158.278 C 76.977 152.204 82.908 146.791 88.545 141.806 C 94.27 136.743 100.891 133.591 107.009 127.934 C 72.703 141.162 59.095 183.546 31.312 205.961 C 23.902 206.574 18.393 204.51 11.618 204.227 C 11.774 199.933 14.829 198.457 16.542 195.558 C 18.158 192.823 19.189 188.966 20.85 186.021 C 21.349 185.139 22.176 185.473 22.696 184.286 C 24.76 179.594 27.84 174.27 30.696 169.548 C 39.444 155.096 48.525 141.794 61.468 133.136 C 57.843 133.593 53.937 136.595 51.006 139.205 C 33.428 154.862 22.791 184.244 7.31 203.362 C 0.441 202.344 -6.944 202.058 -13.614 200.76 C -8.152 184.469 0.531 172.716 11.002 163.48 C 8.403 161.408 6.59 166.112 4.85 167.815 C -1.257 173.79 -7.094 181.8 -12.381 189.49 C -13.256 193.46 -14.326 197.156 -16.689 199.027 C -19.788 200.13 -25.328 198.951 -28.383 197.293 C -23.935 183.907 -14.523 177.513 -7.459 167.815 C -2.599 165.727 1.733 161.188 6.081 157.411 C 10.563 153.517 14.719 150.505 19.619 147.007 C 31.034 138.863 42.109 127.306 55.314 123.599 C 73.186 118.583 93.001 122.969 111.318 121.865 C 120.505 121.31 135.756 120.001 148.858 123.599 C 152.897 124.708 157.731 127.677 163.011 128.8 C 175.835 131.529 187.013 133.89 198.089 139.204 C 209.346 144.604 219.592 150.302 230.09 156.543 L 230.09 156.545 Z" style="fill: rgb(66, 88, 24);" transform="matrix(0.651264, -0.758851, 0.758851, 0.651264, -89.921373, 134.0301)"/>
  <path d="M 260.294 220.548 C 260.395 222.622 260.157 223.721 259.678 224.114 C 233.794 229.341 207.728 229.993 181.521 233.029 C 167.091 234.695 152.78 229.463 138.441 229.463 C 112.193 229.463 85.098 232.87 57.206 229.463 C 28.839 226.001 2.569 218.482 -26.49 224.114 C -29.602 224.717 -33.968 228.683 -36.338 220.548 C -36.3 208.174 -31.62 209.254 -28.952 204.5 C -17.746 213.114 -5.91 204.265 5.512 206.282 C 9.626 207.009 13.612 210.88 17.82 211.633 C 31.873 214.139 45.301 220.652 59.053 222.33 C 78.373 224.691 97.638 223.958 118.133 222.33 C 139.642 220.621 162.272 227.339 185.213 227.681 C 209.582 228.043 234.125 225.175 258.448 220.548 L 260.294 220.548 Z" style="fill: rgb(66, 88, 24);" transform="matrix(0.636563, -0.771225, 0.771225, 0.636563, -128.14178, 165.935694)"/>
</svg>